<?xml version="1.0" standalone="no"?>
<!DOCTYPE svg PUBLIC "-//W3C//DTD SVG 20010904//EN"
 "http://www.w3.org/TR/2001/REC-SVG-20010904/DTD/svg10.dtd">
<svg version="1.0" xmlns="http://www.w3.org/2000/svg"
 viewBox="0 0 300.000000 290.000000"
 preserveAspectRatio="xMidYMid meet">
<metadata>
Created by potrace 1.10, written by Peter Selinger 2001-2011
</metadata>
<g transform="translate(0.000000,290.000000) scale(0.100000,-0.100000)"
fill="#000000" stroke="none">
<path d="M1490 2892 c0 -9 -7 -11 -19 -7 -27 8 -64 -10 -186 -90 -33 -22 -65
-42 -72 -45 -6 -3 -37 -26 -70 -51 -42 -33 -67 -63 -92 -110 -31 -59 -34 -71
-35 -160 0 -58 4 -102 10 -110 6 -8 15 -24 19 -37 4 -13 27 -52 51 -88 24 -35
44 -68 44 -73 0 -5 7 -14 15 -21 21 -17 19 -25 -8 -37 -13 -6 -49 -35 -82 -64
-36 -34 -60 -49 -63 -41 -2 7 -20 28 -40 47 -140 132 -333 130 -562 -6 -75
-44 -118 -78 -172 -134 -43 -45 -138 -180 -138 -196 0 -6 -6 -23 -14 -37 -15
-29 -41 -102 -50 -142 -3 -14 -6 -91 -7 -172 -2 -124 1 -151 15 -173 24 -36
74 -65 114 -65 32 0 108 33 147 64 27 22 269 194 385 274 52 36 109 78 126 94
33 31 51 25 39 -12 -6 -19 11 -81 41 -150 26 -59 49 -105 55 -110 3 -3 8 -12
12 -22 3 -9 31 -53 62 -98 31 -45 53 -86 48 -90 -4 -4 -53 -41 -108 -83 -130
-98 -169 -135 -203 -194 -51 -87 -64 -143 -66 -285 l-1 -130 35 -29 c44 -37
86 -38 154 -2 28 16 53 30 56 33 3 4 23 17 45 30 144 86 317 248 351 329 l14
34 71 -72 c57 -59 75 -72 93 -67 12 3 51 35 86 70 35 36 67 63 71 61 4 -3 10
-17 14 -32 19 -79 182 -230 379 -352 101 -63 123 -73 163 -73 36 0 51 6 72 26
24 24 26 34 29 125 5 124 -9 213 -43 285 -30 63 -122 163 -205 222 -30 21 -64
47 -75 57 -11 10 -32 25 -47 33 -32 17 -33 21 -14 43 38 43 109 160 149 243
34 70 48 112 54 165 l8 72 85 -63 c47 -35 148 -107 225 -161 168 -118 256
-181 271 -194 87 -74 233 -51 251 39 4 19 6 39 4 44 -1 5 4 13 11 17 10 7 10
9 1 9 -7 0 -22 -19 -33 -43 -11 -24 -33 -51 -49 -60 -32 -19 -92 -22 -121 -7
-16 9 -289 201 -445 312 -139 100 -187 128 -206 117 -10 -5 -19 -13 -19 -17
-1 -31 -33 -147 -52 -192 -29 -64 -111 -202 -145 -243 -29 -36 -29 -69 0 -95
33 -30 87 -74 132 -107 80 -58 158 -141 188 -200 31 -58 32 -65 35 -211 4
-149 3 -152 -19 -168 -38 -26 -71 -19 -157 33 -175 105 -315 222 -371 309 -73
114 -75 114 -156 32 -33 -33 -66 -60 -75 -60 -9 0 -42 27 -75 60 -33 33 -67
60 -75 60 -19 0 -48 -30 -79 -82 -36 -60 -156 -164 -300 -259 -115 -77 -139
-89 -176 -89 -71 0 -78 15 -73 172 3 119 6 139 30 190 43 93 82 135 223 240
83 62 114 90 120 107 4 13 -18 55 -75 142 -44 67 -80 126 -80 131 0 4 -12 32
-26 61 -14 28 -28 77 -31 107 -6 54 -25 90 -48 90 -7 0 -45 -24 -86 -53 -95
-68 -407 -288 -482 -340 -77 -53 -139 -61 -184 -23 -51 43 -57 71 -44 199 13
129 32 210 66 283 87 188 228 318 441 406 69 28 90 32 169 32 83 1 95 -2 151
-32 34 -18 78 -51 98 -73 21 -21 43 -39 50 -39 22 0 176 142 176 162 0 10 -25
59 -57 110 -76 124 -91 167 -88 251 4 86 40 164 98 212 23 19 100 71 170 116
180 115 175 115 352 1 178 -115 217 -149 252 -220 24 -48 28 -69 28 -137 -1
-88 -5 -99 -86 -224 -62 -95 -63 -119 -6 -162 23 -18 61 -50 84 -71 24 -21 48
-38 54 -38 6 0 37 24 69 53 75 70 169 103 261 93 34 -4 69 -11 78 -16 9 -4 49
-22 90 -40 253 -108 425 -331 461 -599 23 -173 29 -184 26 -46 -2 101 -7 144
-24 190 -80 230 -233 392 -472 500 -81 37 -90 39 -191 39 -97 1 -110 -1 -163
-28 -31 -16 -74 -48 -95 -72 l-38 -44 -58 55 c-31 30 -68 58 -81 61 -13 3 -24
10 -24 15 0 5 20 38 45 75 25 36 45 68 45 71 0 4 6 14 13 22 44 52 62 209 32
267 -8 16 -15 36 -15 45 0 9 -7 22 -15 29 -8 7 -15 17 -15 22 0 21 -138 134
-205 168 -5 3 -42 26 -81 52 -39 27 -84 49 -100 50 -16 1 -32 7 -36 13 -5 6
-8 5 -8 -3z"/>
<path d="M1455 2836 c-16 -7 -89 -52 -162 -99 -180 -119 -219 -172 -217 -302
1 -81 17 -122 102 -254 49 -76 56 -83 80 -78 158 30 205 38 252 38 61 1 174
-17 203 -32 32 -18 54 0 115 94 95 146 111 198 87 292 -15 55 -48 112 -85 143
-43 37 -298 200 -320 205 -14 3 -38 0 -55 -7z m203 -117 c161 -107 187 -130
213 -186 41 -89 23 -182 -56 -293 -18 -25 -39 -59 -48 -76 l-16 -31 -68 22
c-44 15 -97 23 -151 24 -80 2 -218 -20 -254 -40 -27 -14 -38 -11 -49 14 -12
27 -28 54 -55 92 -52 76 -66 118 -67 198 0 67 4 82 28 119 27 40 83 98 96 98
3 0 57 34 120 75 74 49 124 75 142 75 19 0 73 -30 165 -91z"/>
<path d="M1331 2631 c-8 -14 -6 -22 8 -35 24 -22 57 0 47 32 -9 27 -42 29 -55
3z"/>
<path d="M1580 2635 c-11 -14 -10 -19 8 -37 18 -18 23 -19 37 -8 9 7 15 23 13
34 -4 26 -40 33 -58 11z"/>
<path d="M1355 2104 c-57 -18 -85 -39 -85 -65 0 -27 68 -172 87 -186 18 -14
207 -18 251 -7 26 7 105 163 100 198 -2 14 -20 29 -53 46 -42 20 -67 25 -150
27 -69 2 -115 -2 -150 -13z m273 -35 c28 -7 52 -18 52 -23 0 -6 -15 -46 -32
-88 l-33 -78 -126 0 -125 0 -18 43 c-10 23 -27 59 -37 79 -21 43 -20 45 61 70
63 19 173 18 258 -3z"/>
<path d="M600 2037 c-220 -79 -382 -228 -473 -434 -35 -79 -56 -173 -63 -288
-5 -80 -3 -94 15 -123 25 -39 60 -57 94 -48 14 3 152 97 308 207 399 284 394
280 414 336 9 27 30 76 46 111 36 78 36 100 0 146 -85 107 -209 140 -341 93z
m180 -23 c67 -20 109 -47 142 -94 l27 -37 -38 -79 c-22 -43 -42 -94 -46 -112
-5 -23 -19 -41 -53 -64 -26 -18 -171 -120 -322 -228 -334 -238 -325 -231 -347
-223 -55 21 -63 70 -37 224 17 105 38 175 71 234 13 22 27 49 32 60 16 34 108
136 163 182 79 65 267 151 334 152 11 1 44 -6 74 -15z"/>
<path d="M617 1923 c-12 -11 -7 -40 9 -53 21 -18 49 9 39 39 -6 20 -34 28 -48
14z"/>
<path d="M407 1822 c-22 -24 -21 -45 2 -66 44 -40 106 12 74 61 -18 28 -54 30
-76 5z m48 -32 c-3 -5 -10 -10 -16 -10 -5 0 -9 5 -9 10 0 6 7 10 16 10 8 0 12
-4 9 -10z"/>
<path d="M245 1635 c-27 -26 -30 -41 -15 -79 15 -40 53 -53 94 -34 55 27 55
107 1 128 -39 15 -54 12 -80 -15z m80 -50 c0 -27 -3 -30 -30 -30 -21 0 -31 5
-33 18 -6 33 6 49 35 45 24 -3 28 -8 28 -33z"/>
<path d="M182 1383 c-15 -29 3 -63 33 -63 32 0 55 41 35 65 -17 20 -57 19 -68
-2z"/>
<path d="M2220 2036 c-58 -15 -110 -47 -149 -92 -47 -53 -48 -72 -7 -162 20
-44 36 -89 36 -100 0 -35 44 -75 202 -187 84 -59 164 -115 178 -126 14 -10 54
-39 90 -64 36 -25 105 -74 155 -110 108 -78 140 -84 187 -33 l31 33 -6 115
c-8 198 -75 360 -205 501 -97 104 -238 190 -370 224 -66 18 -82 18 -142 1z
m195 -51 c161 -73 190 -92 281 -183 67 -67 92 -101 128 -175 64 -129 89 -239
84 -366 -3 -73 -4 -76 -33 -90 -39 -19 -19 -31 -445 274 -58 41 -145 103 -194
137 -48 34 -92 71 -96 82 -4 12 -13 39 -20 61 -15 49 -52 128 -64 136 -5 4 3
20 18 35 14 16 26 32 26 36 0 10 94 66 121 71 45 10 154 0 194 -18z"/>
<path d="M2347 1913 c-12 -11 -8 -51 6 -56 19 -7 47 12 47 32 0 24 -37 41 -53
24z"/>
<path d="M2538 1823 c-21 -5 -32 -48 -18 -73 12 -23 59 -27 78 -8 19 19 15 66
-7 78 -20 10 -25 11 -53 3z m34 -48 c0 -5 -5 -11 -11 -13 -6 -2 -11 4 -11 13
0 9 5 15 11 13 6 -2 11 -8 11 -13z"/>
<path d="M2690 1643 c-51 -18 -69 -93 -32 -126 47 -42 141 5 127 63 -11 44
-59 76 -95 63z m34 -39 c21 -8 21 -60 0 -68 -41 -16 -74 41 -36 63 21 13 17
12 36 5z"/>
<path d="M2757 1367 c-19 -29 -2 -57 36 -57 20 0 28 6 33 25 12 50 -41 75 -69
32z"/>
<path d="M1145 2001 c-130 -99 -241 -301 -193 -349 8 -8 53 -12 138 -12 109 0
129 2 143 18 27 30 77 149 77 184 0 34 -50 150 -77 181 -22 24 -31 21 -88 -22z
m86 -28 c12 -27 30 -66 40 -89 l19 -40 -34 -80 -35 -79 -130 -5 c-72 -3 -131
-2 -131 2 0 4 6 22 14 40 8 18 17 40 21 48 23 56 102 153 162 199 24 17 43 36
43 41 0 21 11 8 31 -37z"/>
<path d="M1748 2023 c-23 -26 -78 -152 -78 -179 0 -33 59 -165 83 -186 16 -15
40 -18 151 -18 140 0 156 5 156 47 0 60 -75 186 -157 264 -96 92 -126 105
-155 72z m169 -127 c26 -29 58 -73 69 -97 12 -24 30 -61 40 -81 10 -21 16 -39
14 -40 -3 -2 -65 -1 -138 2 -151 6 -134 -4 -186 108 l-25 53 41 89 41 88 48
-35 c26 -19 70 -58 96 -87z"/>
<path d="M1358 1818 c-21 -15 -88 -158 -88 -186 0 -26 58 -151 83 -179 19 -21
29 -23 142 -23 143 0 135 -5 190 118 l38 82 -28 66 c-15 36 -37 79 -49 97
l-22 32 -125 3 c-89 2 -129 -1 -141 -10z m262 -28 c0 -5 16 -43 36 -84 l35
-76 -37 -80 -38 -80 -123 0 -123 0 -26 58 c-13 31 -31 68 -38 81 -12 22 -11
31 14 80 15 31 32 68 38 84 l12 27 125 0 c73 0 125 -4 125 -10z"/>
<path d="M931 1603 c-18 -12 -21 -25 -21 -81 0 -53 7 -84 35 -151 19 -45 46
-98 60 -117 l26 -34 93 0 c76 0 96 3 108 18 25 28 78 152 78 183 0 39 -63 171
-88 186 -31 19 -264 15 -291 -4z m295 -40 c4 -10 19 -45 35 -79 l30 -61 -38
-81 -38 -82 -92 0 -92 0 -36 78 c-54 112 -54 113 -56 157 -4 93 -17 85 141 85
125 0 141 -2 146 -17z"/>
<path d="M1747 1592 c-23 -25 -77 -150 -77 -179 0 -31 65 -174 87 -190 20 -16
186 -18 213 -3 42 23 107 177 116 279 10 109 7 111 -176 111 -127 0 -149 -2
-163 -18z m313 -51 c0 -63 -27 -164 -63 -231 l-32 -62 -100 0 -100 0 -15 39
c-8 21 -18 40 -22 41 -4 2 -8 9 -8 15 0 7 -7 25 -15 40 -10 19 -11 34 -5 45 5
9 23 47 39 85 l31 67 145 0 145 0 0 -39z"/>
<path d="M1354 1393 c-21 -22 -84 -157 -84 -182 0 -26 59 -151 83 -178 19 -21
29 -23 142 -23 143 0 136 -4 191 118 l37 82 -28 66 c-15 36 -37 79 -49 97
l-22 32 -126 3 c-109 2 -128 0 -144 -15z m266 -23 c0 -5 16 -43 36 -84 l35
-76 -37 -80 -38 -80 -123 0 -123 0 -25 54 c-14 30 -25 60 -25 65 0 6 -4 11
-10 11 -18 0 -11 47 16 102 15 29 31 63 37 76 10 21 16 22 134 22 72 0 123 -4
123 -10z"/>
<path d="M1092 1188 c-23 -23 -13 -59 30 -113 5 -5 33 -43 64 -82 58 -76 79
-86 107 -55 32 35 31 72 -6 153 -19 41 -42 83 -52 92 -20 20 -124 24 -143 5z
m134 -35 c3 -10 19 -45 36 -77 22 -45 28 -67 23 -92 -3 -18 -9 -35 -13 -38 -5
-3 -30 24 -58 60 -27 35 -66 87 -87 114 l-39 50 66 0 c55 0 68 -3 72 -17z"/>
<path d="M1748 1183 c-23 -26 -78 -152 -78 -178 0 -39 21 -84 42 -91 25 -8 69
33 149 140 86 115 80 146 -31 146 -51 0 -71 -4 -82 -17z m146 -38 c-9 -14 -19
-25 -23 -25 -4 0 -14 -12 -23 -27 -17 -29 -61 -84 -90 -115 -10 -10 -18 -22
-18 -27 0 -5 -7 -11 -15 -15 -11 -4 -15 1 -15 17 0 13 -5 28 -10 33 -7 7 -6
20 4 40 8 16 26 55 41 87 l26 57 70 0 69 0 -16 -25z"/>
<path d="M2490 879 c0 -217 0 -220 21 -217 19 3 20 9 20 211 0 114 -3 212 -6
217 -3 6 -13 10 -21 10 -12 0 -14 -35 -14 -221z"/>
<path d="M476 1044 c-8 -20 -8 -998 0 -1018 3 -9 12 -16 19 -16 7 0 16 7 19
16 3 9 6 239 6 513 0 490 -2 521 -31 521 -4 0 -10 -7 -13 -16z"/>
<path d="M994 912 c-135 -99 -171 -139 -216 -232 -29 -60 -32 -75 -36 -186 -4
-114 -3 -123 17 -143 11 -11 27 -21 34 -21 19 0 176 99 262 165 129 99 245
240 245 299 0 29 -159 206 -184 206 -2 0 -57 -40 -122 -88z m166 16 c19 -24
52 -61 72 -84 34 -37 37 -44 28 -73 -23 -81 -145 -200 -337 -329 -35 -23 -66
-42 -69 -42 -3 0 -19 -9 -35 -21 -47 -33 -53 -20 -46 112 11 189 47 247 250
405 51 40 94 73 97 73 3 1 21 -18 40 -41z"/>
<path d="M1351 968 c-26 -27 -44 -83 -37 -111 6 -27 168 -187 188 -187 8 0 51
38 96 84 89 90 96 109 66 169 -34 66 -35 67 -170 67 -113 0 -125 -2 -143 -22z
m285 -57 l22 -49 -78 -82 -78 -81 -86 86 c-68 68 -84 89 -77 103 5 9 14 29 20
45 l11 27 122 0 123 0 21 -49z"/>
<path d="M1826 963 c-112 -129 -126 -148 -126 -171 0 -101 205 -304 441 -437
69 -39 81 -42 103 -19 23 23 23 231 -1 294 -19 52 -80 145 -114 176 -58 53
-244 184 -261 184 -10 0 -29 -12 -42 -27z m219 -132 c87 -67 121 -106 157
-183 22 -48 28 -84 35 -192 7 -105 -1 -115 -61 -83 -192 103 -436 319 -436
387 0 10 -2 24 -5 32 -3 7 16 36 40 63 25 28 55 64 67 81 l22 31 70 -53 c39
-29 89 -67 111 -83z"/>
<path d="M2695 891 c-6 -6 -9 -165 -7 -405 2 -387 3 -396 22 -396 20 0 20 8
20 405 0 412 -2 429 -35 396z"/>
<path d="M275 788 c-3 -7 -4 -101 -3 -208 3 -187 4 -195 23 -195 19 0 20 7 20
205 0 187 -2 205 -18 208 -9 2 -19 -3 -22 -10z"/>
</g>
</svg>
